<svg width="342" height="116" viewBox="0 0 342 116" fill="none" xmlns="http://www.w3.org/2000/svg">
<path d="M7.544 7.43999H58.744V16.144H7.544V7.43999ZM24.952 32.528H35.448V60.176H24.952V32.528ZM54.52 7.43999H64.888V13.712C64.888 21.008 64.888 31.376 61.944 45.072L51.576 44.176C54.52 30.608 54.52 21.008 54.52 13.712V7.43999ZM80.76 0.271996H91.384V72.464H80.76V0.271996ZM86.52 31.76H107.896V40.72H86.52V31.76ZM1.784 64.528L0.504 55.696C21.496 55.696 49.528 55.312 72.952 52.24L73.72 60.048C49.784 64.016 22.392 64.528 1.784 64.528ZM54.008 73.872C77.816 73.872 92.536 81.552 92.536 94.736C92.536 108.048 77.816 115.728 54.008 115.728C30.2 115.728 15.736 108.048 15.736 94.736C15.736 81.552 30.2 73.872 54.008 73.872ZM54.008 82.192C36.856 82.192 26.36 86.8 26.36 94.736C26.36 102.672 36.856 107.28 54.008 107.28C71.288 107.28 81.656 102.672 81.656 94.736C81.656 86.8 71.288 82.192 54.008 82.192ZM149.102 69.264H159.726V88.08H149.102V69.264ZM197.742 0.271996H208.366V115.984H197.742V0.271996ZM204.91 49.424H226.286V58.384H204.91V49.424ZM119.278 93.968L117.742 85.136C138.478 85.136 166.766 84.88 190.702 81.424L191.598 89.36C166.638 93.84 139.502 93.968 119.278 93.968ZM119.662 14.224H188.91V22.8H119.662V14.224ZM154.35 29.584C170.478 29.584 181.614 38.032 181.614 50.96C181.614 64.016 170.478 72.336 154.35 72.336C138.222 72.336 127.214 64.016 127.214 50.96C127.214 38.032 138.222 29.584 154.35 29.584ZM154.35 37.776C143.982 37.776 137.198 43.024 137.198 50.96C137.198 58.896 143.982 64.144 154.35 64.144C164.718 64.144 171.63 58.896 171.63 50.96C171.63 43.024 164.718 37.776 154.35 37.776ZM149.102 0.399994H159.726V19.984H149.102V0.399994ZM236.772 59.408H341.604V68.112H236.772V59.408ZM284.644 64.784H295.268V91.408H284.644V64.784ZM250.212 5.64799H328.036V46.352H250.212V5.64799ZM317.54 14.224H260.58V37.776H317.54V14.224ZM250.084 104.72H329.956V113.424H250.084V104.72ZM250.084 80.272H260.58V107.792H250.084V80.272Z" fill="#F0F0F0"/>
</svg>
