<svg width="569" height="116" viewBox="0 0 569 116" fill="none" xmlns="http://www.w3.org/2000/svg">
<path d="M47.248 38.544H57.744V54.16H47.248V38.544ZM52.624 1.67999C78.096 1.67999 93.328 8.71999 93.328 21.648C93.328 34.576 78.096 41.744 52.624 41.744C27.024 41.744 11.92 34.576 11.92 21.648C11.92 8.71999 27.024 1.67999 52.624 1.67999ZM52.624 9.744C33.68 9.744 22.8 14.096 22.8 21.648C22.8 29.328 33.68 33.68 52.624 33.68C71.44 33.68 82.32 29.328 82.32 21.648C82.32 14.096 71.44 9.744 52.624 9.744ZM0.272 50.32H104.848V59.024H0.272V50.32ZM12.944 68.496H91.536V94.736H23.696V108.816H13.2V86.928H81.04V76.816H12.944V68.496ZM13.2 106.384H94.992V114.704H13.2V106.384ZM202.246 0.271996H212.998V68.88H202.246V0.271996ZM124.038 54.672H133.382C154.374 54.672 169.862 54.032 188.422 51.088L189.574 59.664C170.502 62.864 154.886 63.504 133.382 63.504H124.038V54.672ZM123.782 7.184H176.262V38.8H134.406V59.92H124.038V30.608H165.894V15.888H123.782V7.184ZM138.246 75.28H212.998V114.448H138.246V75.28ZM202.502 83.728H148.614V105.872H202.502V83.728ZM241.02 9.616H303.1V18.32H241.02V9.616ZM239.1 63.504L237.82 54.544C258.044 54.544 285.692 54.288 308.604 51.472L309.5 59.408C285.948 63.12 258.94 63.504 239.1 63.504ZM252.412 15.76H262.652V57.616H252.412V15.76ZM281.34 15.76H291.708V57.616H281.34V15.76ZM253.436 76.176H330.748V115.984H319.996V84.88H253.436V76.176ZM319.996 0.271996H330.748V70.416H319.996V0.271996ZM405.49 73.232C430.066 73.232 445.81 81.296 445.81 94.608C445.81 107.792 430.066 115.728 405.49 115.728C380.786 115.728 365.17 107.792 365.17 94.608C365.17 81.296 380.786 73.232 405.49 73.232ZM405.49 81.552C387.314 81.552 375.666 86.544 375.666 94.608C375.666 102.544 387.314 107.536 405.49 107.536C423.666 107.536 435.186 102.544 435.186 94.608C435.186 86.544 423.666 81.552 405.49 81.552ZM366.066 6.032H440.562V14.736H366.066V6.032ZM353.65 54.16H458.098V62.736H353.65V54.16ZM396.53 31.888H407.026V56.592H396.53V31.888ZM434.418 6.032H444.786V15.888C444.786 25.232 444.786 34.576 441.714 46.608L431.218 45.328C434.418 33.424 434.418 24.976 434.418 15.888V6.032ZM504.168 58.512H514.792V84.24H504.168V58.512ZM555.496 0.271996H566.12V88.336H555.496V0.271996ZM487.144 104.72H568.936V113.424H487.144V104.72ZM487.144 79.76H497.768V107.152H487.144V79.76ZM472.168 62.48L470.76 53.776C492.136 53.776 520.808 53.52 545.384 50.32L546.152 58.128C521.192 62.096 493.16 62.48 472.168 62.48ZM531.944 68.624H558.184V76.432H531.944V68.624ZM508.392 5.008C525.288 5.008 536.808 12.944 536.808 25.104C536.808 37.392 525.288 45.328 508.392 45.328C491.368 45.328 479.848 37.392 479.848 25.104C479.848 12.944 491.368 5.008 508.392 5.008ZM508.392 12.944C497.512 12.944 489.96 17.68 489.96 25.104C489.96 32.528 497.512 37.264 508.392 37.264C519.144 37.264 526.696 32.528 526.696 25.104C526.696 17.68 519.144 12.944 508.392 12.944Z" fill="#F0F0F0"/>
</svg>
