<svg width="93" height="34" viewBox="0 0 93 34" fill="none" xmlns="http://www.w3.org/2000/svg">
<path d="M93 17C93 26.3888 85.3888 34 76 34C66.6112 34 59 26.3888 59 17C59 7.61116 66.6112 0 76 0C85.3888 0 93 7.61116 93 17Z" fill="#FFABAB"/>
<path d="M80.7071 17.707C81.0976 17.3165 81.0976 16.6834 80.7071 16.2928L74.3431 9.92887C73.9526 9.53835 73.3195 9.53835 72.9289 9.92887C72.5384 10.3194 72.5384 10.9526 72.9289 11.3431L78.5858 16.9999L72.9289 22.6568C72.5384 23.0473 72.5384 23.6805 72.9289 24.071C73.3195 24.4615 73.9526 24.4615 74.3432 24.071L80.7071 17.707ZM8.31785e-07 18L80 17.9999L80 15.9999L-8.31785e-07 16L8.31785e-07 18Z" fill="black"/>
</svg>
