<svg width="639" height="226" viewBox="0 0 639 226" fill="none" xmlns="http://www.w3.org/2000/svg">
<path d="M167.536 1.15199H187.128V115.976H167.536V1.15199ZM131.824 51.744H174.232V68.608H131.824V51.744ZM118.68 5.368H138.024V114.488H118.68V5.368ZM74.536 14.792H95.368C95.368 66.376 65.36 102.832 9.808 123.168L0.136001 108.04C49.24 90.68 74.536 61.168 74.536 21.984V14.792ZM9.064 14.792H83.216V31.408H9.064V14.792ZM39.32 126.392H187.128V180.704H60.152V213.192H39.816V164.832H167.288V142.76H39.32V126.392ZM39.816 205.752H195.808V222.368H39.816V205.752ZM390.221 0.903995H410.805V225.592H390.221V0.903995ZM347.565 87.208H395.181V104.072H347.565V87.208ZM234.725 154.664H251.837C291.517 154.664 319.541 153.424 352.525 147.472L354.509 164.584C320.781 170.536 292.261 172.024 251.837 172.024H234.725V154.664ZM234.229 21.984H334.421V100.6H255.061V159.872H234.725V83.736H314.085V38.848H234.229V21.984ZM617.865 0.903995H638.449V225.592H617.865V0.903995ZM467.577 154.416H486.177C523.625 154.416 557.105 152.928 596.785 146.48L599.017 163.344C558.345 170.04 524.617 171.528 486.177 171.528H467.577V154.416ZM467.081 21.984H570.745V102.088H488.161V160.864H467.577V85.224H549.913V38.848H467.081V21.984Z" fill="#F0F0F0"/>
</svg>
