<svg width="1186" height="225" viewBox="0 0 1186 225" fill="none" xmlns="http://www.w3.org/2000/svg">
<path d="M24.208 10.816H168.544V27.68H24.208V10.816ZM157.384 10.816H177.72V29.912C177.72 50.496 177.72 73.56 171.52 104.064L151.184 102.576C157.384 72.32 157.384 50.248 157.384 29.912V10.816ZM163.336 51.736V67.112L21.728 73.808L18.752 56.2L163.336 51.736ZM0.4 118.944H202.768V135.808H0.4V118.944ZM82.488 86.704H103.072V129.608H82.488V86.704ZM26.192 204.008H182.68V220.872H26.192V204.008ZM26.192 154.904H46.776V210.952H26.192V154.904ZM237.965 107.288H252.349C287.565 107.288 308.397 106.544 333.445 101.584L335.429 118.448C309.637 123.408 288.309 124.4 252.349 124.4H237.965V107.288ZM237.965 16.52H324.765V33.384H257.805V116.464H237.965V16.52ZM251.605 61.16H322.037V77.28H251.605V61.16ZM397.677 0.151991H417.269V136.056H397.677V0.151991ZM361.469 58.68H403.877V75.544H361.469V58.68ZM348.325 4.368H367.669V134.816H348.325V4.368ZM266.981 147.96H417.269V224.344H396.933V164.824H266.981V147.96ZM482.721 120.928H636.729V137.544H482.721V120.928ZM456.681 178.464H659.793V195.576H456.681V178.464ZM482.721 19.248H634.249V36.112H503.553V126.136H482.721V19.248ZM496.857 69.344H629.537V85.712H496.857V69.344ZM764.74 117.456H779.124C810.372 117.456 833.436 116.712 860.716 111.256L862.948 127.624C834.676 133.08 811.116 134.32 779.124 134.32H764.74V117.456ZM764.244 18.256H843.604V82.984H784.58V125.64H764.74V67.112H823.516V34.872H764.244V18.256ZM852.284 62.152H893.7V79.016H852.284V62.152ZM923.708 0.151991H943.3V168.792H923.708V0.151991ZM879.812 4.368H899.156V163.088H879.812V4.368ZM797.228 202.52H950.244V219.384H797.228V202.52ZM797.228 152.176H817.812V213.184H797.228V152.176ZM982.713 177.472H1185.82V194.584H982.713V177.472ZM1073.48 30.408H1090.84V49.008C1090.84 94.888 1044.96 129.608 1000.82 138.784L992.385 122.416C1031.07 115.72 1073.48 84.472 1073.48 49.008V30.408ZM1077.2 30.408H1094.56V49.008C1094.56 84.472 1137.22 115.224 1176.4 121.424L1168.22 138.04C1123.33 129.112 1077.2 94.888 1077.2 49.008V30.408ZM999.329 22.224H1168.71V39.336H999.329V22.224Z" fill="#F0F0F0"/>
</svg>
