<svg width="461" height="118" viewBox="0 0 461 118" fill="none" xmlns="http://www.w3.org/2000/svg">
<path d="M52.496 82.528C77.84 82.528 92.176 88.544 92.176 100.192C92.176 111.712 77.84 117.728 52.496 117.728C27.28 117.728 12.816 111.712 12.816 100.192C12.816 88.544 27.28 82.528 52.496 82.528ZM52.496 90.464C34.064 90.464 23.696 93.792 23.696 100.192C23.696 106.464 34.064 109.92 52.496 109.92C71.056 109.92 81.296 106.464 81.296 100.192C81.296 93.792 71.056 90.464 52.496 90.464ZM5.776 12H98.832V20.32H5.776V12ZM52.624 24.928C76.432 24.928 90 30.688 90 41.44C90 52.32 76.432 57.952 52.624 57.952C28.688 57.952 15.248 52.32 15.248 41.44C15.248 30.688 28.688 24.928 52.624 24.928ZM52.624 32.48C35.856 32.48 26.512 35.68 26.512 41.44C26.512 47.328 35.856 50.528 52.624 50.528C69.264 50.528 78.608 47.328 78.608 41.44C78.608 35.68 69.264 32.48 52.624 32.48ZM47.376 0.607994H57.872V17.248H47.376V0.607994ZM0.272 66.784H104.848V75.36H0.272V66.784ZM47.376 54.88H57.872V71.008H47.376V54.88ZM135.686 77.408H212.998V117.984H202.246V85.984H135.686V77.408ZM202.246 2.272H212.998V71.008H202.246V2.272ZM150.918 9.05599C168.326 9.05599 180.998 20.32 180.998 36.576C180.998 52.704 168.326 63.84 150.918 63.84C133.382 63.84 120.71 52.704 120.71 36.576C120.71 20.32 133.382 9.05599 150.918 9.05599ZM150.918 18.144C139.398 18.144 131.078 25.568 131.078 36.576C131.078 47.456 139.398 55.008 150.918 55.008C162.438 55.008 170.758 47.456 170.758 36.576C170.758 25.568 162.438 18.144 150.918 18.144ZM319.996 2.39999H330.748V86.88H319.996V2.39999ZM256.38 106.72H334.204V115.424H256.38V106.72ZM256.38 78.176H266.876V109.664H256.38V78.176ZM268.668 10.336C285.948 10.336 298.748 22.112 298.748 38.88C298.748 55.52 285.948 67.424 268.668 67.424C251.388 67.424 238.46 55.52 238.46 38.88C238.46 22.112 251.388 10.336 268.668 10.336ZM268.668 19.552C257.404 19.552 248.828 27.488 248.828 38.88C248.828 50.144 257.404 58.08 268.668 58.08C279.932 58.08 288.508 50.144 288.508 38.88C288.508 27.488 279.932 19.552 268.668 19.552ZM432.754 2.272H443.378V86.88H432.754V2.272ZM440.05 37.344H460.53V46.176H440.05V37.344ZM401.138 11.232H412.402C412.402 41.184 391.41 63.072 358.258 73.696L353.65 64.992C382.834 56.032 401.138 38.112 401.138 15.84V11.232ZM358.386 11.232H406.514V19.936H358.386V11.232ZM371.186 106.72H448.498V115.424H371.186V106.72ZM371.186 78.304H381.81V110.176H371.186V78.304Z" fill="#F0F1F1"/>
</svg>
