<svg width="460" height="117" viewBox="0 0 460 117" fill="none" xmlns="http://www.w3.org/2000/svg">
<path d="M50.496 26H85.44V34.832H50.496V26ZM50.496 62.608H85.44V71.44H50.496V62.608ZM29.248 9.104C46.016 9.104 58.048 24.848 58.048 49.424C58.048 74.128 46.016 89.872 29.248 89.872C12.352 89.872 0.448 74.128 0.448 49.424C0.448 24.848 12.352 9.104 29.248 9.104ZM29.248 18.704C18.112 18.704 10.432 30.736 10.432 49.424C10.432 68.24 18.112 80.528 29.248 80.528C40.384 80.528 48.064 68.24 48.064 49.424C48.064 30.736 40.384 18.704 29.248 18.704ZM83.136 0.143997H93.632V116.112H83.136V0.143997ZM203.446 0.271996H213.558V73.488H203.446V0.271996ZM184.63 31.632H206.518V40.464H184.63V31.632ZM178.742 2.576H188.726V69.392H178.742V2.576ZM115.51 14.096H174.134V22.544H115.51V14.096ZM144.95 28.432C159.414 28.432 169.526 36.368 169.526 48.272C169.526 60.304 159.414 68.112 144.95 68.112C130.358 68.112 120.246 60.304 120.246 48.272C120.246 36.368 130.358 28.432 144.95 28.432ZM144.95 36.368C135.862 36.368 129.718 41.104 129.718 48.272C129.718 55.568 135.862 60.176 144.95 60.176C153.91 60.176 160.054 55.568 160.054 48.272C160.054 41.104 153.91 36.368 144.95 36.368ZM139.702 1.16799H150.07V18.832H139.702V1.16799ZM175.67 75.536C199.734 75.536 214.198 82.704 214.198 95.632C214.198 108.432 199.734 115.728 175.67 115.728C151.35 115.728 137.014 108.432 137.014 95.632C137.014 82.704 151.35 75.536 175.67 75.536ZM175.67 83.728C157.878 83.728 147.51 87.952 147.51 95.632C147.51 103.312 157.878 107.664 175.67 107.664C193.206 107.664 203.702 103.312 203.702 95.632C203.702 87.952 193.206 83.728 175.67 83.728ZM312.236 0.271996H322.86V115.984H312.236V0.271996ZM320.3 47.76H341.804V56.72H320.3V47.76ZM233.26 18.704H301.484V27.408H233.26V18.704ZM267.82 37.008C284.204 37.008 295.98 48.016 295.98 63.632C295.98 79.248 284.204 90.256 267.82 90.256C251.564 90.256 239.66 79.248 239.66 63.632C239.66 48.016 251.564 37.008 267.82 37.008ZM267.82 45.84C257.324 45.84 249.772 53.136 249.772 63.632C249.772 74 257.324 81.424 267.82 81.424C278.316 81.424 285.868 74 285.868 63.632C285.868 53.136 278.316 45.84 267.82 45.84ZM262.316 1.67999H272.94V22.672H262.316V1.67999ZM429.858 0.143997H440.61V116.112H429.858V0.143997ZM438.05 45.84H459.554V54.8H438.05V45.84ZM356.514 78.352H365.602C386.978 78.352 401.954 77.584 419.234 74.384L420.386 83.344C402.594 86.672 387.362 87.312 365.602 87.312H356.514V78.352ZM356.514 11.408H410.274V20.112H367.01V82.32H356.514V11.408Z" fill="#F0F0F0"/>
</svg>
